<svg xmlns="http://www.w3.org/2000/svg" viewBox="0 0 1600 900" preserveAspectRatio="xMinYMin slice"><defs>
<linearGradient id="fadeR" x1="0" y1="0" x2="1" y2="0">
  <stop offset="0.35" stop-color="#fff" stop-opacity="0"/>
  <stop offset="0.62" stop-color="#fff" stop-opacity="0.9"/>
  <stop offset="0.8" stop-color="#fff" stop-opacity="1"/>
</linearGradient>
<linearGradient id="fadeB" x1="0" y1="0" x2="0" y2="1">
  <stop offset="0.45" stop-color="#fff" stop-opacity="0"/>
  <stop offset="0.85" stop-color="#fff" stop-opacity="0.95"/>
</linearGradient>
<linearGradient id="sheen" x1="0" y1="0" x2="1" y2="0.15">
  <stop offset="0" stop-color="#fff" stop-opacity="0"/>
  <stop offset="0.18" stop-color="#fff" stop-opacity="0.35"/>
  <stop offset="0.34" stop-color="#fff" stop-opacity="0"/>
  <stop offset="0.52" stop-color="#fff" stop-opacity="0.3"/>
  <stop offset="0.7" stop-color="#fff" stop-opacity="0"/>
</linearGradient>
</defs><rect width="1600" height="900" fill="#fff"/><path d="M0,0.0 L40,7.7 L80,14.8 L120,20.8 L160,25.3 L200,28.2 L240,29.3 L280,28.7 L320,26.9 L360,24.2 L400,21.0 L440,17.9 L480,15.2 L520,13.2 L560,12.0 L600,11.6 L640,11.7 L680,12.0 L720,12.2 L760,11.7 L800,10.4 L840,7.8 L880,4.0 L920,-1.0 L960,-6.9 L1000,-13.4 L1040,-20.0 L1080,-26.0 L1120,-31.0 L1160,-34.6 L1200,-36.2 L1240,-36.0 L1280,-33.8 L1320,-29.9 L1360,-24.7 L1400,-18.7 L1440,-12.4 L1480,-6.4 L1520,-1.1 L1560,3.1 L1600,6.2 L1600,80.5 L1560,79.3 L1520,77.0 L1480,73.4 L1440,68.6 L1400,62.8 L1360,56.4 L1320,49.9 L1280,43.8 L1240,38.7 L1200,35.0 L1160,33.1 L1120,33.1 L1080,35.1 L1040,38.8 L1000,43.9 L960,49.9 L920,56.2 L880,62.4 L840,67.8 L800,72.3 L760,75.6 L720,77.7 L680,78.7 L640,79.0 L600,78.9 L560,78.9 L520,79.2 L480,80.2 L440,82.1 L400,84.7 L360,88.0 L320,91.5 L280,95.0 L240,97.8 L200,99.5 L160,99.8 L120,98.4 L80,95.2 L40,90.3 L0,84.0 Z" fill="#C65650"/><path d="M0,84.0 L40,90.3 L80,95.2 L120,98.4 L160,99.8 L200,99.5 L240,97.8 L280,95.0 L320,91.5 L360,88.0 L400,84.7 L440,82.1 L480,80.2 L520,79.2 L560,78.9 L600,78.9 L640,79.0 L680,78.7 L720,77.7 L760,75.6 L800,72.3 L840,67.8 L880,62.4 L920,56.2 L960,49.9 L1000,43.9 L1040,38.8 L1080,35.1 L1120,33.1 L1160,33.1 L1200,35.0 L1240,38.7 L1280,43.8 L1320,49.9 L1360,56.4 L1400,62.8 L1440,68.6 L1480,73.4 L1520,77.0 L1560,79.3 L1600,80.5 L1600,152.2 L1560,152.4 L1520,151.9 L1480,150.4 L1440,147.6 L1400,143.5 L1360,138.2 L1320,131.9 L1280,125.2 L1240,118.5 L1200,112.4 L1160,107.4 L1120,103.9 L1080,102.3 L1040,102.7 L1000,105.0 L960,108.9 L920,114.0 L880,119.8 L840,125.9 L800,131.6 L760,136.5 L720,140.4 L680,143.2 L640,144.8 L600,145.6 L560,145.8 L520,145.9 L480,146.1 L440,146.9 L400,148.5 L360,151.0 L320,154.3 L280,158.1 L240,162.1 L200,165.7 L160,168.6 L120,170.2 L80,170.2 L40,168.5 L0,164.9 Z" fill="#F3EFEC"/><path d="M0,164.9 L40,168.5 L80,170.2 L120,170.2 L160,168.6 L200,165.7 L240,162.1 L280,158.1 L320,154.3 L360,151.0 L400,148.5 L440,146.9 L480,146.1 L520,145.9 L560,145.8 L600,145.6 L640,144.8 L680,143.2 L720,140.4 L760,136.5 L800,131.6 L840,125.9 L880,119.8 L920,114.0 L960,108.9 L1000,105.0 L1040,102.7 L1080,102.3 L1120,103.9 L1160,107.4 L1200,112.4 L1240,118.5 L1280,125.2 L1320,131.9 L1360,138.2 L1400,143.5 L1440,147.6 L1480,150.4 L1520,151.9 L1560,152.4 L1600,152.2 L1600,222.3 L1560,223.1 L1520,223.7 L1480,223.9 L1440,223.2 L1400,221.3 L1360,218.0 L1320,213.4 L1280,207.6 L1240,201.0 L1200,194.0 L1160,187.1 L1120,181.1 L1080,176.2 L1040,173.1 L1000,171.8 L960,172.5 L920,175.0 L880,179.0 L840,184.1 L800,189.8 L760,195.4 L720,200.6 L680,205.0 L640,208.4 L600,210.6 L560,211.9 L520,212.4 L480,212.6 L440,212.8 L400,213.5 L360,214.8 L320,217.0 L280,220.1 L240,224.0 L200,228.3 L160,232.6 L120,236.4 L80,239.2 L40,240.7 L0,240.4 Z" fill="#C65650"/><path d="M0,240.4 L40,240.7 L80,239.2 L120,236.4 L160,232.6 L200,228.3 L240,224.0 L280,220.1 L320,217.0 L360,214.8 L400,213.5 L440,212.8 L480,212.6 L520,212.4 L560,211.9 L600,210.6 L640,208.4 L680,205.0 L720,200.6 L760,195.4 L800,189.8 L840,184.1 L880,179.0 L920,175.0 L960,172.5 L1000,171.8 L1040,173.1 L1080,176.2 L1120,181.1 L1160,187.1 L1200,194.0 L1240,201.0 L1280,207.6 L1320,213.4 L1360,218.0 L1400,221.3 L1440,223.2 L1480,223.9 L1520,223.7 L1560,223.1 L1600,222.3 L1600,292.0 L1560,292.4 L1520,293.4 L1480,294.4 L1440,295.2 L1400,295.3 L1360,294.3 L1320,292.0 L1280,288.3 L1240,283.2 L1200,276.9 L1160,269.9 L1120,262.7 L1080,255.9 L1040,249.9 L1000,245.3 L960,242.4 L920,241.5 L880,242.5 L840,245.2 L800,249.3 L760,254.3 L720,259.6 L680,264.9 L640,269.6 L600,273.4 L560,276.2 L520,277.9 L480,278.8 L440,279.2 L400,279.4 L360,279.9 L320,280.9 L280,282.8 L240,285.6 L200,289.3 L160,293.8 L120,298.5 L80,303.0 L40,306.9 L0,309.7 Z" fill="#F3EFEC"/><path d="M0,309.7 L40,306.9 L80,303.0 L120,298.5 L160,293.8 L200,289.3 L240,285.6 L280,282.8 L320,280.9 L360,279.9 L400,279.4 L440,279.2 L480,278.8 L520,277.9 L560,276.2 L600,273.4 L640,269.6 L680,264.9 L720,259.6 L760,254.3 L800,249.3 L840,245.2 L880,242.5 L920,241.5 L960,242.4 L1000,245.3 L1040,249.9 L1080,255.9 L1120,262.7 L1160,269.9 L1200,276.9 L1240,283.2 L1280,288.3 L1320,292.0 L1360,294.3 L1400,295.3 L1440,295.2 L1480,294.4 L1520,293.4 L1560,292.4 L1600,292.0 L1600,362.0 L1560,361.7 L1520,362.1 L1480,363.1 L1440,364.5 L1400,365.8 L1360,366.6 L1320,366.6 L1280,365.3 L1240,362.6 L1200,358.4 L1160,352.8 L1120,346.1 L1080,338.9 L1040,331.5 L1000,324.7 L960,318.9 L920,314.6 L880,312.0 L840,311.4 L800,312.7 L760,315.6 L720,319.6 L680,324.5 L640,329.5 L600,334.3 L560,338.4 L520,341.6 L480,343.8 L440,345.1 L400,345.7 L360,346.0 L320,346.3 L280,347.0 L240,348.5 L200,350.9 L160,354.4 L120,358.7 L80,363.6 L40,368.7 L0,373.5 Z" fill="#C65650"/><path d="M0,373.5 L40,368.7 L80,363.6 L120,358.7 L160,354.4 L200,350.9 L240,348.5 L280,347.0 L320,346.3 L360,346.0 L400,345.7 L440,345.1 L480,343.8 L520,341.6 L560,338.4 L600,334.3 L640,329.5 L680,324.5 L720,319.6 L760,315.6 L800,312.7 L840,311.4 L880,312.0 L920,314.6 L960,318.9 L1000,324.7 L1040,331.5 L1080,338.9 L1120,346.1 L1160,352.8 L1200,358.4 L1240,362.6 L1280,365.3 L1320,366.6 L1360,366.6 L1400,365.8 L1440,364.5 L1480,363.1 L1520,362.1 L1560,361.7 L1600,362.0 L1600,432.4 L1560,431.3 L1520,430.9 L1480,431.3 L1440,432.3 L1400,433.9 L1360,435.6 L1320,437.1 L1280,437.9 L1240,437.7 L1200,436.1 L1160,432.9 L1120,428.3 L1080,422.2 L1040,415.2 L1000,407.8 L960,400.4 L920,393.6 L880,388.0 L840,384.0 L800,381.9 L760,381.6 L720,383.1 L680,386.0 L640,390.1 L600,394.6 L560,399.3 L520,403.5 L480,407.0 L440,409.6 L400,411.3 L360,412.2 L320,412.5 L280,412.7 L240,413.2 L200,414.3 L160,416.2 L120,419.2 L80,423.3 L40,428.1 L0,433.5 Z" fill="#F3EFEC"/><path d="M0,433.5 L40,428.1 L80,423.3 L120,419.2 L160,416.2 L200,414.3 L240,413.2 L280,412.7 L320,412.5 L360,412.2 L400,411.3 L440,409.6 L480,407.0 L520,403.5 L560,399.3 L600,394.6 L640,390.1 L680,386.0 L720,383.1 L760,381.6 L800,381.9 L840,384.0 L880,388.0 L920,393.6 L960,400.4 L1000,407.8 L1040,415.2 L1080,422.2 L1120,428.3 L1160,432.9 L1200,436.1 L1240,437.7 L1280,437.9 L1320,437.1 L1360,435.6 L1400,433.9 L1440,432.3 L1480,431.3 L1520,430.9 L1560,431.3 L1600,432.4 L1600,502.2 L1560,501.1 L1520,500.2 L1480,499.7 L1440,500.0 L1400,501.0 L1360,502.6 L1320,504.6 L1280,506.7 L1240,508.3 L1200,509.1 L1160,508.6 L1120,506.7 L1080,503.1 L1040,498.0 L1000,491.6 L960,484.3 L920,476.7 L880,469.3 L840,462.7 L800,457.4 L760,453.7 L720,451.9 L680,451.9 L640,453.6 L600,456.6 L560,460.5 L520,464.8 L480,469.0 L440,472.6 L400,475.5 L360,477.5 L320,478.7 L280,479.2 L240,479.3 L200,479.5 L160,480.2 L120,481.6 L80,484.1 L40,487.7 L0,492.3 Z" fill="#C65650"/><path d="M0,492.3 L40,487.7 L80,484.1 L120,481.6 L160,480.2 L200,479.5 L240,479.3 L280,479.2 L320,478.7 L360,477.5 L400,475.5 L440,472.6 L480,469.0 L520,464.8 L560,460.5 L600,456.6 L640,453.6 L680,451.9 L720,451.9 L760,453.7 L800,457.4 L840,462.7 L880,469.3 L920,476.7 L960,484.3 L1000,491.6 L1040,498.0 L1080,503.1 L1120,506.7 L1160,508.6 L1200,509.1 L1240,508.3 L1280,506.7 L1320,504.6 L1360,502.6 L1400,501.0 L1440,500.0 L1480,499.7 L1520,500.2 L1560,501.1 L1600,502.2 L1600,570.2 L1560,570.0 L1520,569.3 L1480,568.6 L1440,568.1 L1400,568.3 L1360,569.2 L1320,570.8 L1280,573.0 L1240,575.5 L1200,577.8 L1160,579.5 L1120,580.1 L1080,579.4 L1040,577.1 L1000,573.1 L960,567.5 L920,560.8 L880,553.3 L840,545.6 L800,538.3 L760,531.9 L720,526.9 L680,523.6 L640,522.2 L600,522.5 L560,524.3 L520,527.3 L480,531.0 L440,534.9 L400,538.6 L360,541.6 L320,543.9 L280,545.3 L240,545.9 L200,546.1 L160,546.1 L120,546.4 L80,547.3 L40,549.2 L0,552.2 Z" fill="#F3EFEC"/><path d="M0,552.2 L40,549.2 L80,547.3 L120,546.4 L160,546.1 L200,546.1 L240,545.9 L280,545.3 L320,543.9 L360,541.6 L400,538.6 L440,534.9 L480,531.0 L520,527.3 L560,524.3 L600,522.5 L640,522.2 L680,523.6 L720,526.9 L760,531.9 L800,538.3 L840,545.6 L880,553.3 L920,560.8 L960,567.5 L1000,573.1 L1040,577.1 L1080,579.4 L1120,580.1 L1160,579.5 L1200,577.8 L1240,575.5 L1280,573.0 L1320,570.8 L1360,569.2 L1400,568.3 L1440,568.1 L1480,568.6 L1520,569.3 L1560,570.0 L1600,570.2 L1600,635.2 L1560,636.7 L1520,637.2 L1480,637.0 L1440,636.5 L1400,636.1 L1360,636.1 L1320,636.9 L1280,638.5 L1240,640.7 L1200,643.5 L1160,646.3 L1120,648.8 L1080,650.5 L1040,651.0 L1000,650.0 L960,647.3 L920,642.8 L880,636.9 L840,629.9 L800,622.3 L760,614.6 L720,607.4 L680,601.3 L640,596.7 L600,593.7 L560,592.6 L520,593.2 L480,595.1 L440,598.0 L400,601.5 L360,604.9 L320,608.0 L280,610.5 L240,612.1 L200,612.9 L160,613.1 L120,613.0 L80,612.9 L40,613.3 L0,614.5 Z" fill="#C65650"/><path d="M0,614.5 L40,613.3 L80,612.9 L120,613.0 L160,613.1 L200,612.9 L240,612.1 L280,610.5 L320,608.0 L360,604.9 L400,601.5 L440,598.0 L480,595.1 L520,593.2 L560,592.6 L600,593.7 L640,596.7 L680,601.3 L720,607.4 L760,614.6 L800,622.3 L840,629.9 L880,636.9 L920,642.8 L960,647.3 L1000,650.0 L1040,651.0 L1080,650.5 L1120,648.8 L1160,646.3 L1200,643.5 L1240,640.7 L1280,638.5 L1320,636.9 L1360,636.1 L1400,636.1 L1440,636.5 L1480,637.0 L1520,637.2 L1560,636.7 L1600,635.2 L1600,696.8 L1560,700.3 L1520,702.6 L1480,703.8 L1440,704.1 L1400,703.9 L1360,703.6 L1320,703.7 L1280,704.3 L1240,705.7 L1200,707.9 L1160,710.8 L1120,714.0 L1080,717.2 L1040,719.8 L1000,721.5 L960,721.7 L920,720.4 L880,717.2 L840,712.4 L800,706.2 L760,698.9 L720,691.2 L680,683.6 L640,676.6 L600,670.9 L560,666.6 L520,664.1 L480,663.3 L440,664.0 L400,666.0 L360,668.8 L320,671.9 L280,674.9 L240,677.4 L200,679.2 L160,680.2 L120,680.4 L80,680.2 L40,679.9 L0,679.8 Z" fill="#F3EFEC"/><path d="M0,679.8 L40,679.9 L80,680.2 L120,680.4 L160,680.2 L200,679.2 L240,677.4 L280,674.9 L320,671.9 L360,668.8 L400,666.0 L440,664.0 L480,663.3 L520,664.1 L560,666.6 L600,670.9 L640,676.6 L680,683.6 L720,691.2 L760,698.9 L800,706.2 L840,712.4 L880,717.2 L920,720.4 L960,721.7 L1000,721.5 L1040,719.8 L1080,717.2 L1120,714.0 L1160,710.8 L1200,707.9 L1240,705.7 L1280,704.3 L1320,703.7 L1360,703.6 L1400,703.9 L1440,704.1 L1480,703.8 L1520,702.6 L1560,700.3 L1600,696.8 L1600,755.5 L1560,760.7 L1520,765.0 L1480,768.0 L1440,769.8 L1400,770.7 L1360,770.9 L1320,770.8 L1280,770.9 L1240,771.4 L1200,772.6 L1160,774.6 L1120,777.5 L1080,780.9 L1040,784.5 L1000,788.0 L960,790.7 L920,792.2 L880,792.3 L840,790.5 L800,787.0 L760,781.8 L720,775.3 L680,767.9 L640,760.2 L600,752.7 L560,746.0 L520,740.6 L480,736.8 L440,734.6 L400,734.1 L360,735.0 L320,737.0 L280,739.5 L240,742.3 L200,744.7 L160,746.6 L120,747.8 L80,748.1 L40,747.9 L0,747.3 Z" fill="#C65650"/><path d="M0,747.3 L40,747.9 L80,748.1 L120,747.8 L160,746.6 L200,744.7 L240,742.3 L280,739.5 L320,737.0 L360,735.0 L400,734.1 L440,734.6 L480,736.8 L520,740.6 L560,746.0 L600,752.7 L640,760.2 L680,767.9 L720,775.3 L760,781.8 L800,787.0 L840,790.5 L880,792.3 L920,792.2 L960,790.7 L1000,788.0 L1040,784.5 L1080,780.9 L1120,777.5 L1160,774.6 L1200,772.6 L1240,771.4 L1280,770.9 L1320,770.8 L1360,770.9 L1400,770.7 L1440,769.8 L1480,768.0 L1520,765.0 L1560,760.7 L1600,755.5 L1600,813.1 L1560,819.0 L1520,824.6 L1480,829.3 L1440,833.0 L1400,835.5 L1360,836.9 L1320,837.6 L1280,837.7 L1240,837.8 L1200,838.2 L1160,839.2 L1120,841.0 L1080,843.7 L1040,847.2 L1000,851.1 L960,855.1 L920,858.7 L880,861.4 L840,862.8 L800,862.6 L760,860.5 L720,856.6 L680,851.1 L640,844.3 L600,836.9 L560,829.2 L520,821.9 L480,815.6 L440,810.6 L400,807.1 L360,805.4 L320,805.1 L280,806.1 L240,808.0 L200,810.3 L160,812.6 L120,814.5 L80,815.7 L40,816.2 L0,816.0 Z" fill="#F3EFEC"/><path d="M0,816.0 L40,816.2 L80,815.7 L120,814.5 L160,812.6 L200,810.3 L240,808.0 L280,806.1 L320,805.1 L360,805.4 L400,807.1 L440,810.6 L480,815.6 L520,821.9 L560,829.2 L600,836.9 L640,844.3 L680,851.1 L720,856.6 L760,860.5 L800,862.6 L840,862.8 L880,861.4 L920,858.7 L960,855.1 L1000,851.1 L1040,847.2 L1080,843.7 L1120,841.0 L1160,839.2 L1200,838.2 L1240,837.8 L1280,837.7 L1320,837.6 L1360,836.9 L1400,835.5 L1440,833.0 L1480,829.3 L1520,824.6 L1560,819.0 L1600,813.1 L1600,872.1 L1560,877.3 L1520,882.9 L1480,888.5 L1440,893.5 L1400,897.7 L1360,900.8 L1320,902.8 L1280,903.9 L1240,904.4 L1200,904.5 L1160,904.8 L1120,905.6 L1080,907.2 L1040,909.6 L1000,912.9 L960,916.9 L920,921.3 L880,925.6 L840,929.4 L800,932.0 L760,933.2 L720,932.7 L680,930.2 L640,926.0 L600,920.2 L560,913.3 L520,905.8 L480,898.2 L440,891.3 L400,885.3 L360,880.7 L320,877.7 L280,876.3 L240,876.3 L200,877.3 L160,879.0 L120,881.0 L80,882.8 L40,884.1 L0,884.7 Z" fill="#C65650"/><path d="M0,0.0 L40,7.7 L80,14.8 L120,20.8 L160,25.3 L200,28.2 L240,29.3 L280,28.7 L320,26.9 L360,24.2 L400,21.0 L440,17.9 L480,15.2 L520,13.2 L560,12.0 L600,11.6 L620,455.0 L580,458.5 L540,462.6 L500,466.9 L460,470.9 L420,474.2 L380,476.6 L340,478.2 L300,479.0 L260,479.3 L220,479.4 L180,479.8 L140,480.8 L100,482.7 L60,485.8 L20,489.9 Z" fill="#2E4A66"/><polygon points="50.0,36.2 54.9,49.5 69.0,50.1 58.0,58.8 61.8,72.4 50.0,64.6 38.2,72.4 42.0,58.8 31.0,50.1 45.1,49.5" fill="#fff" opacity="0.95"/><polygon points="150.0,45.0 154.9,58.2 169.0,58.8 158.0,67.6 161.8,81.2 150.0,73.4 138.2,81.2 142.0,67.6 131.0,58.8 145.1,58.2" fill="#fff" opacity="0.95"/><polygon points="250.0,45.2 254.9,58.4 269.0,59.0 258.0,67.8 261.8,81.4 250.0,73.6 238.2,81.4 242.0,67.8 231.0,59.0 245.1,58.4" fill="#fff" opacity="0.95"/><polygon points="350.0,39.5 354.9,52.8 369.0,53.4 358.0,62.1 361.8,75.7 350.0,67.9 338.2,75.7 342.0,62.1 331.0,53.4 345.1,52.8" fill="#fff" opacity="0.95"/><polygon points="450.0,33.3 454.9,46.5 469.0,47.2 458.0,55.9 461.8,69.5 450.0,61.7 438.2,69.5 442.0,55.9 431.0,47.2 445.1,46.5" fill="#fff" opacity="0.95"/><polygon points="550.0,30.5 554.9,43.7 569.0,44.3 558.0,53.1 561.8,66.7 550.0,58.9 538.2,66.7 542.0,53.1 531.0,44.3 545.1,43.7" fill="#fff" opacity="0.95"/><polygon points="100.0,119.0 104.9,132.2 119.0,132.8 108.0,141.5 111.8,155.1 100.0,147.4 88.2,155.1 92.0,141.5 81.0,132.8 95.1,132.2" fill="#fff" opacity="0.95"/><polygon points="200.0,117.1 204.9,130.3 219.0,130.9 208.0,139.7 211.8,153.3 200.0,145.5 188.2,153.3 192.0,139.7 181.0,130.9 195.1,130.3" fill="#fff" opacity="0.95"/><polygon points="300.0,110.1 304.9,123.3 319.0,123.9 308.0,132.7 311.8,146.3 300.0,138.5 288.2,146.3 292.0,132.7 281.0,123.9 295.1,123.3" fill="#fff" opacity="0.95"/><polygon points="400.0,103.5 404.9,116.7 419.0,117.3 408.0,126.1 411.8,139.7 400.0,131.9 388.2,139.7 392.0,126.1 381.0,117.3 395.1,116.7" fill="#fff" opacity="0.95"/><polygon points="500.0,100.7 504.9,113.9 519.0,114.6 508.0,123.3 511.8,136.9 500.0,129.1 488.2,136.9 492.0,123.3 481.0,114.6 495.1,113.9" fill="#fff" opacity="0.95"/><polygon points="50.0,192.2 54.9,205.4 69.0,206.0 58.0,214.8 61.8,228.4 50.0,220.6 38.2,228.4 42.0,214.8 31.0,206.0 45.1,205.4" fill="#fff" opacity="0.95"/><polygon points="150.0,188.3 154.9,201.5 169.0,202.1 158.0,210.9 161.8,224.4 150.0,216.7 138.2,224.4 142.0,210.9 131.0,202.1 145.1,201.5" fill="#fff" opacity="0.95"/><polygon points="250.0,180.1 254.9,193.3 269.0,193.9 258.0,202.7 261.8,216.3 250.0,208.5 238.2,216.3 242.0,202.7 231.0,193.9 245.1,193.3" fill="#fff" opacity="0.95"/><polygon points="350.0,173.4 354.9,186.6 369.0,187.2 358.0,196.0 361.8,209.6 350.0,201.8 338.2,209.6 342.0,196.0 331.0,187.2 345.1,186.6" fill="#fff" opacity="0.95"/><polygon points="450.0,170.8 454.9,184.0 469.0,184.6 458.0,193.4 461.8,207.0 450.0,199.2 438.2,207.0 442.0,193.4 431.0,184.6 445.1,184.0" fill="#fff" opacity="0.95"/><polygon points="550.0,170.4 554.9,183.6 569.0,184.2 558.0,193.0 561.8,206.5 550.0,198.8 538.2,206.5 542.0,193.0 531.0,184.2 545.1,183.6" fill="#fff" opacity="0.95"/><polygon points="100.0,258.8 104.9,272.0 119.0,272.6 108.0,281.4 111.8,295.0 100.0,287.2 88.2,295.0 92.0,281.4 81.0,272.6 95.1,272.0" fill="#fff" opacity="0.95"/><polygon points="200.0,249.7 204.9,262.9 219.0,263.6 208.0,272.3 211.8,285.9 200.0,278.1 188.2,285.9 192.0,272.3 181.0,263.6 195.1,262.9" fill="#fff" opacity="0.95"/><polygon points="300.0,243.0 304.9,256.2 319.0,256.9 308.0,265.6 311.8,279.2 300.0,271.4 288.2,279.2 292.0,265.6 281.0,256.9 295.1,256.2" fill="#fff" opacity="0.95"/><polygon points="400.0,240.7 404.9,253.9 419.0,254.5 408.0,263.3 411.8,276.8 400.0,269.1 388.2,276.8 392.0,263.3 381.0,254.5 395.1,253.9" fill="#fff" opacity="0.95"/><polygon points="500.0,240.1 504.9,253.3 519.0,253.9 508.0,262.7 511.8,276.2 500.0,268.5 488.2,276.2 492.0,262.7 481.0,253.9 495.1,253.3" fill="#fff" opacity="0.95"/><polygon points="50.0,328.7 54.9,341.9 69.0,342.5 58.0,351.3 61.8,364.9 50.0,357.1 38.2,364.9 42.0,351.3 31.0,342.5 45.1,341.9" fill="#fff" opacity="0.95"/><polygon points="150.0,319.0 154.9,332.2 169.0,332.8 158.0,341.6 161.8,355.2 150.0,347.4 138.2,355.2 142.0,341.6 131.0,332.8 145.1,332.2" fill="#fff" opacity="0.95"/><polygon points="250.0,312.5 254.9,325.7 269.0,326.3 258.0,335.1 261.8,348.7 250.0,340.9 238.2,348.7 242.0,335.1 231.0,326.3 245.1,325.7" fill="#fff" opacity="0.95"/><polygon points="350.0,310.5 354.9,323.7 369.0,324.3 358.0,333.1 361.8,346.6 350.0,338.9 338.2,346.6 342.0,333.1 331.0,324.3 345.1,323.7" fill="#fff" opacity="0.95"/><polygon points="450.0,309.7 454.9,322.9 469.0,323.5 458.0,332.3 461.8,345.9 450.0,338.1 438.2,345.9 442.0,332.3 431.0,323.5 445.1,322.9" fill="#fff" opacity="0.95"/><polygon points="550.0,305.9 554.9,319.1 569.0,319.7 558.0,328.5 561.8,342.0 550.0,334.3 538.2,342.0 542.0,328.5 531.0,319.7 545.1,319.1" fill="#fff" opacity="0.95"/><polygon points="100.0,388.0 104.9,401.2 119.0,401.8 108.0,410.6 111.8,424.1 100.0,416.4 88.2,424.1 92.0,410.6 81.0,401.8 95.1,401.2" fill="#fff" opacity="0.95"/><polygon points="200.0,381.9 204.9,395.1 219.0,395.7 208.0,404.5 211.8,418.1 200.0,410.3 188.2,418.1 192.0,404.5 181.0,395.7 195.1,395.1" fill="#fff" opacity="0.95"/><polygon points="300.0,380.2 304.9,393.4 319.0,394.1 308.0,402.8 311.8,416.4 300.0,408.6 288.2,416.4 292.0,402.8 281.0,394.1 295.1,393.4" fill="#fff" opacity="0.95"/><polygon points="400.0,379.4 404.9,392.6 419.0,393.2 408.0,402.0 411.8,415.5 400.0,407.8 388.2,415.5 392.0,402.0 381.0,393.2 395.1,392.6" fill="#fff" opacity="0.95"/><polygon points="500.0,375.1 504.9,388.3 519.0,388.9 508.0,397.7 511.8,411.3 500.0,403.5 488.2,411.3 492.0,397.7 481.0,388.9 495.1,388.3" fill="#fff" opacity="0.95"/><rect width="1600" height="900" fill="url(#sheen)"/><rect width="1600" height="900" fill="url(#fadeR)"/><rect width="1600" height="900" fill="url(#fadeB)"/></svg>